# xmcd
#
# Track frame offsets:
#	150
#	13547
#	33060
#	47362
#	62732
#	75027
#	95585
#	109120
#	125930
#	141822
#	160145
#	173602
#
# Disc length: 2539 seconds
#
# Revision: 0
# Processed by: cddbd v1.5PL3 Copyright (c) Steve Scherf et al.
# Submitted via: dBpowerAMP V4.0
#
DISCID=8909e90c
DTITLE=Glen Mitchell - Everything I Ever Wanted
DYEAR=1900
DGENRE=Country
TTITLE0=Love On My Side
TTITLE1=Everything I Ever Wanted
TTITLE2=I Can`t Take Another Honky-Tonk
TTITLE3=Mexican Moon
TTITLE4=She`ll Dance With Every Cowboy
TTITLE5=A Change Of Heart
TTITLE6=Shoot The Rooster
TTITLE7=Love Child
TTITLE8=Golden Beaches
TTITLE9=Our Love Will Rise Again
TTITLE10=(You Make Me Feel) Groovy!
TTITLE11=(Bonus Track) Mexican Moon (Dance Mix By Dissinance)
EXTD=
EXTT0=
EXTT1=
EXTT2=
EXTT3=
EXTT4=
EXTT5=
EXTT6=
EXTT7=
EXTT8=
EXTT9=
EXTT10=
EXTT11=
PLAYORDER=
